<svg xmlns="http://www.w3.org/2000/svg" fill="none" viewBox="0 0 48 48" id="Cyborg--Streamline-Core" height="48" width="48"><desc>Cyborg Streamline Icon: https://streamlinehq.com</desc><g id="cyborg--artificial-robotics-intelligence-machine-technology-android"><path id="Vector" stroke="#22C55E" stroke-linecap="round" stroke-linejoin="round" d="M42.857142857142854 31.138148571428573c0 -10.285782857142857 -8.434285714285714 -15.895405714285715 -18.857142857142858 -15.895405714285715S5.142857142857142 20.852365714285714 5.142857142857142 31.138148571428573v11.53350857142857c0 1.8936 1.53504 3.4285714285714284 3.4285714285714284 3.4285714285714284h30.857142857142854c1.8936 0 3.4285714285714284 -1.5349714285714284 3.4285714285714284 -3.4285714285714284V31.138148571428573Z" stroke-width="3.4286"></path><path id="Vector_2" stroke="#22C55E" stroke-linecap="round" stroke-linejoin="round" d="M24 15.242605714285713 24 10.099885714285714" stroke-width="3.4286"></path><path id="Vector_3" stroke="#22C55E" stroke-linecap="round" stroke-linejoin="round" d="M24.000377142857143 9.24017142857143c2.0269028571428573 0 3.6700114285714283 -1.643142857142857 3.6700114285714283 -3.670045714285714S26.027279999999998 1.900110857142857 24.000377142857143 1.900110857142857c-2.0269028571428573 0 -3.6700114285714283 1.643112 -3.6700114285714283 3.6700148571428572s1.6431085714285714 3.670045714285714 3.6700114285714283 3.670045714285714Z" stroke-width="3.4286"></path><path id="Rectangle 604" stroke="#22C55E" stroke-linecap="round" stroke-linejoin="round" d="M42.857142857142854 34.09988571428571h-3.259542857142857c-1.1478857142857142 0 -2.2196571428571428 0.5746285714285714 -2.8553142857142855 1.5308571428571427l-1.0296 1.5490285714285712c-0.6353142857142856 0.9558857142857142 -1.7072571428571428 1.5305142857142857 -2.8553142857142855 1.5305142857142857H15.141257142857143c-1.1480571428571427 0 -2.2198971428571426 -0.5746285714285714 -2.8553828571428572 -1.5305142857142857l-1.0295657142857142 -1.5490285714285712c-0.6354857142857142 -0.9562285714285713 -1.7073599999999998 -1.5308571428571427 -2.8554171428571427 -1.5308571428571427H5.142857142857142" stroke-width="3.4286"></path><g id="Group 4536"><path id="Ellipse 1121" stroke="#22C55E" stroke-linecap="round" stroke-linejoin="round" d="M16.285714285714285 27.428571428571427c-0.4733828571428571 0 -0.8571428571428571 -0.38376 -0.8571428571428571 -0.8571428571428571s0.38376 -0.8571428571428571 0.8571428571428571 -0.8571428571428571" stroke-width="3.4286"></path><path id="Ellipse 1122" stroke="#22C55E" stroke-linecap="round" stroke-linejoin="round" d="M16.285714285714285 27.428571428571427c0.4733828571428571 0 0.8571428571428571 -0.38376 0.8571428571428571 -0.8571428571428571s-0.38376 -0.8571428571428571 -0.8571428571428571 -0.8571428571428571" stroke-width="3.4286"></path></g><g id="Group 4537"><path id="Ellipse 1121_2" stroke="#22C55E" stroke-linecap="round" stroke-linejoin="round" d="M31.71428571428571 27.428571428571427C31.240902857142853 27.428571428571427 30.857142857142854 27.04481142857143 30.857142857142854 26.57142857142857s0.38376 -0.8571428571428571 0.8571428571428571 -0.8571428571428571" stroke-width="3.4286"></path><path id="Ellipse 1122_2" stroke="#22C55E" stroke-linecap="round" stroke-linejoin="round" d="M31.71428571428571 27.428571428571427c0.4733828571428571 0 0.8571428571428571 -0.38376 0.8571428571428571 -0.8571428571428571s-0.38376 -0.8571428571428571 -0.8571428571428571 -0.8571428571428571" stroke-width="3.4286"></path></g></g></svg>
